<?xml version="1.0" encoding="utf-8"?>
<!-- Generator: Adobe Illustrator 22.1.0, SVG Export Plug-In . SVG Version: 6.00 Build 0)  -->
<svg version="1.1" id="Layer_1" xmlns="http://www.w3.org/2000/svg" xmlns:xlink="http://www.w3.org/1999/xlink" x="0px" y="0px"
	 viewBox="0 0 228 203" style="enable-background:new 0 0 228 203;" xml:space="preserve">
<style type="text/css">
	.st0{fill:#FBF173;}
	.st1{fill:#F5EE76;}
	.st2{fill:#7F7AB9;}
	.st3{fill:none;}
	.st4{fill:#1870B8;}
	.st5{font-family:'BodoniSvtyTwoITCTT-Bold';}
	.st6{font-size:35.4625px;}
	.st7{letter-spacing:2;}
	.st8{letter-spacing:-2;}
	.st9{font-family:'FiraSans-MediumItalic';}
	.st10{font-size:17.1939px;}
</style>
<path class="st0" d="M31.6,130.7"/>
<path class="st1" d="M67,20.7c0,0,1.9-0.8,2.2-3.6c0.8-7.5,5.8-2.4,10.2-5.1c1.8-1.1,1.8-3.8,4.2-4.7c4-1.5,7.9,3.4,11.7,1.2
	c2.9-1.6,3.6-7.1,6.8-6.3c2.1,0.5,2.6,3.6,4.7,4.3c3.4,1.1,5.5-5.2,9-4.7c2.9,0.4,3.7,4.9,6.6,5.3c3.3,0.5,5.4-4.8,8.6-4.1
	c2.9,0.6,3.3,5.4,6.1,5.9c2.9,0.5,5.2-3.9,8-3c1.8,0.6,2.3,2.9,3.2,4.5c2.7,4.7,5.9,1.4,9.4,2.2c6.2,1.3,1.2,3.4,5,7.3
	c2.5,2.5,7.2-2.2,10.1-0.1c2.7,1.9,0,7,2.5,9.2c2.5,2.2,7.2-1.3,9.5,1.1c1,1,1,2.6,0.8,4c-0.2,1.4-0.6,2.8-0.3,4.1
	c1.2,4.6,10.8-0.2,10.2,6c-0.2,2.3-2.5,4.4-1.6,6.5c1.3,3,6.9,1.2,8.5,4c1.5,2.8-2.7,6-1.7,9c1.2,3.2,7.1,2.5,7.9,5.8
	c0.7,2.9-3.7,5.2-3.1,8.2c0.6,3.5,7.2,3.6,7.2,7.1c0,1.8-1.7,2.9-3.1,4c-6.7,5.5,9.2,7.6,0.6,14.3c-1.3,1-2.7,2.4-2.6,4
	c0.1,3.4,5.9,5.1,4.8,8.3c-0.8,2.5-5,2.2-6.4,4.5c-1,1.8,0.2,4,1.4,5.7s2.2,4.1,0.9,5.7c-1.5,1.8-4.9,0.9-6.4,2.7
	c-2.3,2.8,2.9,7.4,0.8,10.4c-1.6,2.3-6,0.9-7.7,3.2c-1.3,1.8,0,4.3,0.1,6.5c0,1.9-1,3.8-2.7,4.8c-1.9,1.1-4.7,0-6.4,1.5
	c-2.6,2.3,0.4,5.3-0.6,7.8c-0.5,1.4-2,2.3-3.5,2.3c-2.2,0-4.4-2-6.3-1c-3.1,1.7,0.3,7.8-2.7,9.7c-2.4,1.5-5.4-2-8.1-1
	c-3.8,1.3-1.4,8.8-5.3,10c-3.2,1-6.4-4.3-9.2-2.5c-1.7,1.1-1.3,3.6-2.4,5.3c-1.1,1.7-3.4,2.1-5.3,1.5c-1.9-0.6-3.9-3.3-6.1-2.4
	c-1.9,0.8-2.2,4.1-3.6,5.5c-1.4,1.5-4,2.1-5.6,0.8c-1.3-1.1-1.8-3.3-3.4-3.8c-1.6-0.5-3.1,0.9-4,2.2s-2,2.9-3.7,3.1
	c-3.1,0.3-4.3-4.7-7.4-5.3c-1.9-0.3-3.6,1.2-5.1,2.4c-1.5,1.3-3.5,2.5-5.2,1.6c-2.3-1.2-1.9-5.1-4.3-6.1c-2.3-1-4.3,1.6-6.6,2.5
	c-1.7,0.6-3.7,0.2-5-1c-1.6-1.6-0.9-4.2-2.7-5.5c-2.3-1.6-4.9,1-7.3,1.2c-1.6,0.1-3.4-0.5-4.1-2c-0.8-1.8,0.2-4.3-1.1-5.8
	c-1.3-1.5-3.7-0.9-5.5-0.3c-1.9,0.7-4.3,1.1-5.4-0.5c-1.4-1.9,0.7-4.8-0.2-6.9c-0.9-2.1-3.8-2.2-6-2c-2.3,0.2-5.2-0.1-5.9-2.3
	c-0.4-1.3,0.2-2.6,0.7-3.9c1.3-3.9-2.5-4.1-5.4-4.4c-2-0.2-4.2-1-4.8-2.9c-0.9-2.7,2.2-5.7,0.8-8.1c-1.6-2.8-6.9-0.9-8.5-3.7
	c-1.7-2.9,3.1-6.4,1.7-9.4c-1.3-3-7-2-7.8-5.1c-0.7-2.6,2.9-4.4,3.6-7c0.4-1.6-0.5-3.3-1.8-4.4c-2.8-2.4-7.3-2.7-3.3-7.2
	c3.4-3.9,3.1-5.3-1.3-8.5c-1.4-1-2.8-2.7-2.2-4.4c0.9-2.7,5.6-2.5,6.3-5.2c0.7-2.7-3.5-4.4-3.8-7.2c-0.4-3.7,5.9-5.1,6.2-8.9
	c0.2-3-3.9-5.4-3-8.3c1.2-3.7,8.1-2.2,7.7-6.8c-0.2-1.9-2.7-3-2.7-5.2c0-2.1,1.5-4,3.6-4.4c1.8-0.3,3.9,0.5,5.3-0.7
	c1.4-1.2,0.9-3.5,0.2-5.2c-0.7-1.7-1.5-3.8-0.4-5.3c2-2.9,7.7,0.2,9.7-2.7c0.9-1.3,0.5-3.1,0.1-4.7c-0.4-1.6-0.4-3.6,1-4.4
	c1.5-1,3.5,0.2,5.2,0.2c1.9-0.1,3.5-1.7,4.1-3.5c1.3-3.4,0.8-9.6,6.8-6.8C65.2,21,67,20.7,67,20.7z"/>
<path class="st2" d="M67.9,30.9c0,0,1.7-0.9,1.8-3.4c0.3-6.8,5.2-2.5,9-5.2c1.6-1.1,1.4-3.6,3.6-4.5c3.5-1.5,7.3,2.6,10.7,0.5
	c2.5-1.6,2.9-6.6,5.8-6.1c1.9,0.3,2.6,3.1,4.5,3.6c3.2,0.8,4.7-5,7.9-4.8c2.7,0.2,3.7,4.2,6.3,4.5c3,0.2,4.6-4.7,7.6-4.2
	c2.6,0.4,3.3,4.7,5.9,5c2.7,0.3,4.5-3.8,7.1-3.2c1.7,0.4,2.2,2.5,3.2,3.9c2.7,4.1,5.5,1,8.6,1.4c5.7,0.8,1.3,3.1,5,6.4
	c2.4,2.2,6.5-2.4,9.2-0.7c2.5,1.6,0.4,6.4,2.8,8.2c2.4,1.8,6.4-1.6,8.7,0.4c1,0.8,1.1,2.3,0.9,3.6c-0.1,1.3-0.4,2.6,0,3.8
	c1.4,4.1,9.8-0.8,9.7,4.9c0,2.1-2,4.1-1.1,6c1.3,2.7,6.3,0.7,7.9,3.2c1.5,2.4-2.1,5.6-1,8.3c1.2,2.8,6.6,1.8,7.5,4.8
	c0.8,2.6-3,5-2.4,7.7c0.8,3.1,6.8,2.8,7,6.1c0.1,1.6-1.4,2.8-2.6,3.8c-5.8,5.4,8.8,6.4,1.3,12.9c-1.1,1-2.3,2.3-2.2,3.8
	c0.3,3.1,5.6,4.3,4.8,7.3c-0.6,2.4-4.4,2.3-5.5,4.4c-0.8,1.7,0.4,3.6,1.6,5.1c1.1,1.5,2.2,3.6,1.1,5.1c-1.3,1.7-4.4,1.1-5.7,2.9
	c-1.9,2.7,3.1,6.5,1.4,9.4c-1.3,2.2-5.4,1.2-6.8,3.4c-1.1,1.7,0.3,3.9,0.5,5.9c0.1,1.8-0.7,3.6-2.2,4.5c-1.7,1.1-4.3,0.3-5.7,1.7
	c-2.3,2.2,0.7,4.7-0.1,7.1c-0.4,1.3-1.7,2.2-3,2.3c-2,0.1-4.1-1.6-5.8-0.5c-2.7,1.7,0.7,7.1-1.9,8.9c-2.1,1.5-5.1-1.5-7.4-0.5
	c-3.3,1.4-0.8,8.1-4.2,9.4c-2.9,1.1-6.1-3.6-8.5-1.8c-1.5,1.1-1,3.4-1.8,5c-0.9,1.6-3,2.1-4.7,1.7c-1.8-0.4-3.7-2.8-5.6-1.8
	c-1.7,0.8-1.8,3.8-2.9,5.2c-1.2,1.4-3.5,2.2-5,1.1c-1.3-0.9-1.8-2.9-3.3-3.3c-1.5-0.4-2.8,1-3.5,2.3c-0.8,1.3-1.7,2.8-3.1,3
	c-2.8,0.4-4.2-4-7.1-4.4c-1.8-0.2-3.2,1.3-4.5,2.5c-1.3,1.2-3,2.5-4.7,1.7c-2.1-1-2.1-4.5-4.3-5.3c-2.1-0.7-3.9,1.7-5.9,2.6
	c-1.5,0.7-3.4,0.4-4.6-0.7c-1.6-1.3-1.1-3.8-2.8-4.8c-2.2-1.3-4.4,1.2-6.5,1.5c-1.5,0.2-3.1-0.3-3.8-1.6c-0.9-1.6-0.1-3.9-1.3-5.2
	c-1.2-1.3-3.4-0.6-5,0.1c-1.6,0.7-3.9,1.3-5-0.1c-1.4-1.7,0.4-4.4-0.6-6.3c-0.9-1.9-3.6-1.8-5.6-1.5c-2.1,0.3-4.7,0.2-5.5-1.7
	c-0.4-1.2,0.1-2.4,0.4-3.6c0.9-3.6-2.5-3.6-5.2-3.7c-1.8-0.1-3.9-0.7-4.5-2.3c-0.9-2.4,1.6-5.3,0.2-7.4c-1.6-2.4-6.4-0.4-8-2.8
	c-1.7-2.5,2.4-6,1-8.7c-1.4-2.6-6.4-1.4-7.4-4.2c-0.8-2.3,2.4-4.1,2.8-6.6c0.3-1.5-0.6-3-1.9-3.9c-2.7-2-6.8-2-3.4-6.4
	c2.9-3.7,2.6-5-1.7-7.6c-1.4-0.8-2.7-2.3-2.3-3.8c0.7-2.5,5-2.6,5.4-5.1c0.5-2.5-3.4-3.8-3.9-6.4c-0.6-3.4,5.1-5,5.1-8.4
	c0-2.8-3.9-4.7-3.2-7.4c0.8-3.4,7.3-2.5,6.6-6.6c-0.3-1.7-2.6-2.6-2.8-4.6c-0.2-1.9,1.1-3.7,3-4.2c1.6-0.4,3.6,0.2,4.8-0.9
	c1.2-1.2,0.7-3.2-0.1-4.7s-1.6-3.4-0.7-4.8c1.7-2.7,7-0.3,8.7-3c0.8-1.3,0.2-2.9-0.2-4.3s-0.6-3.2,0.6-4.1c1.3-1,3.2,0,4.8-0.2
	c1.7-0.2,3.1-1.7,3.6-3.4c0.9-3.2,0.2-8.8,5.8-6.6C66.4,31.2,67.9,30.9,67.9,30.9z"/>
<path class="st3" d="M-38-30.5c0-5.3,64.4-9.5,144-9.5"/>
<path class="st3" d="M106-40c0,8,0,14.5,0,14.5"/>
<path class="st3" d="M149-25.5c0-27.1-22.9-49-51.3-49"/>
<g>
	<g>
		<path class="st0" d="M40.8,100.1c0.8,9.8,3.2,19.3,7.1,28.1c2,4.4,4.3,8.6,7,12.5c2.7,4,5.7,7.7,9.1,11c3.3,3.4,7,6.5,10.9,9.2
			c3.9,2.8,8.1,5.1,12.5,7.1c8.7,4,18.3,6.3,28.1,7.2c-9.8,0.8-19.9-0.7-29.3-4.3c-4.7-1.8-9.2-4.1-13.4-6.9
			c-4.2-2.8-8.1-6-11.7-9.5c-3.5-3.6-6.7-7.5-9.4-11.8c-2.7-4.2-5-8.7-6.7-13.4C41.5,120,40,109.9,40.8,100.1z"/>
	</g>
	<g>
		<path class="st0" d="M190.1,100.1c0.8,9.8-0.7,19.9-4.2,29.3c-1.7,4.7-4,9.2-6.7,13.4c-2.7,4.2-5.9,8.2-9.4,11.8
			c-3.6,3.6-7.5,6.8-11.7,9.5c-4.2,2.7-8.7,5.1-13.4,6.9c-9.3,3.6-19.4,5.1-29.3,4.3c9.8-0.8,19.3-3.2,28.1-7.2
			c4.4-2,8.6-4.3,12.5-7.1c3.9-2.7,7.6-5.8,10.9-9.2c3.4-3.4,6.4-7.1,9.1-11c2.7-3.9,5-8.2,7-12.5
			C186.9,119.4,189.3,109.9,190.1,100.1z"/>
	</g>
</g>
<g>
	<g>
		<path class="st0" d="M40.3,94.7c-0.8-9.8,0.7-19.9,4.2-29.3c1.7-4.7,4-9.2,6.7-13.4c2.7-4.2,5.9-8.2,9.4-11.8
			c3.6-3.6,7.5-6.8,11.7-9.5c4.2-2.7,8.7-5.1,13.4-6.9c9.3-3.6,19.4-5.1,29.3-4.3c-9.8,0.8-19.3,3.2-28.1,7.2
			c-4.4,2-8.6,4.3-12.5,7.1c-3.9,2.7-7.6,5.8-10.9,9.2c-3.4,3.4-6.4,7.1-9.1,11c-2.7,3.9-5,8.2-7,12.5
			C43.5,75.4,41.1,84.9,40.3,94.7z"/>
	</g>
	<g>
		<path class="st0" d="M189.6,94.7c-0.8-9.8-3.2-19.3-7.1-28.1c-2-4.4-4.3-8.6-7-12.5c-2.7-4-5.7-7.7-9.1-11
			c-3.3-3.4-7-6.5-10.9-9.2c-3.9-2.8-8.1-5.1-12.5-7.1c-8.7-4-18.3-6.3-28.1-7.2c9.8-0.8,19.9,0.7,29.3,4.3
			c4.7,1.8,9.2,4.1,13.4,6.9c4.2,2.8,8.1,6,11.7,9.5c3.5,3.6,6.7,7.5,9.4,11.8c2.7,4.2,5,8.7,6.7,13.4
			C188.9,74.8,190.4,84.9,189.6,94.7z"/>
	</g>
</g>
<g>
	
		<rect x="55.8" y="65.8" transform="matrix(0.9723 -0.2337 0.2337 0.9723 -16.7122 41.8468)" class="st3" width="224.9" height="51.3"/>
	<text transform="matrix(0.9723 -0.2337 0.2337 0.9723 58.7499 117.0981)"><tspan x="0" y="0" class="st4 st5 st6">B</tspan><tspan x="21.8" y="0" class="st4 st5 st6 st7">R</tspan><tspan x="46.6" y="0" class="st4 st5 st6 st8">A</tspan><tspan x="68.3" y="0" class="st4 st5 st6">VO!</tspan></text>
</g>
<rect x="60.1" y="65.1" transform="matrix(0.9723 -0.2337 0.2337 0.9723 -19.5453 43.2119)" class="st3" width="224.9" height="77.9"/>
<text transform="matrix(0.9723 -0.2337 0.2337 0.9723 59.9818 116.785)"><tspan x="0" y="0" class="st1 st5 st6">B</tspan><tspan x="21.8" y="0" class="st1 st5 st6 st7">R</tspan><tspan x="46.6" y="0" class="st1 st5 st6 st8">A</tspan><tspan x="68.3" y="0" class="st1 st5 st6">VO!</tspan><tspan x="0" y="20.6" class="st1 st9 st10">Cafe &amp; Bakery</tspan></text>
</svg>
